<!--?xml version="1.0" encoding="utf-8"?-->
<!-- Svg Vector Icons : http://www.onlinewebfonts.com/icon -->

<svg version="1.1" xmlns="http://www.w3.org/2000/svg" xmlns:xlink="http://www.w3.org/1999/xlink" x="0px" y="0px" viewBox="0 0 256 256" enable-background="new 0 0 256 256" xml:space="preserve">
<metadata> Svg Vector Icons : http://www.onlinewebfonts.com/icon </metadata>
<g><g><g><path fill="#138ca3" data-title="Layer 0" xs="0" d="M121.5,10.6c-4.4,0.8-10.9,4.4-14.4,7.9c-3.3,3.3-6.9,9.5-8.1,13.7l-0.7,2.4l-9.7,1c-11,1.1-23.8,3.3-29.6,5.2c-5.3,1.6-11.1,5.5-12.8,8.7c-1.8,3.4-3.7,11-3.7,15.3c0.1,25.4,26.3,46.4,66.1,53c9,1.4,29.4,1.5,38.5,0c34.6-5.5,59.5-22.4,65.1-44.2c2-7.8,1.1-16.3-2.3-23.2c-2-4-7-7.7-13-9.5c-5.8-1.8-18.6-4-29.6-5.2l-9.7-1l-0.7-2.4c-0.4-1.4-1.6-4.3-2.7-6.5C148.1,14,135,8,121.5,10.6z M136.5,22c3.6,1.7,7.9,6,9.8,9.6l1.2,2.3H128h-19.5l0.9-1.8c1.3-2.6,4.7-6.6,7.1-8.4C121.9,19.7,130.3,19,136.5,22z M135.2,90.4c8.1,2.5,9.1,9.5,2,13.2c-3.9,2-11.7,2.4-16.2,0.9c-8.2-2.7-9.4-9.6-2.3-13.2C123.3,88.9,129.4,88.6,135.2,90.4z"/><path fill="#138ca3" data-title="Layer 1" xs="1" d="M54.8,104.4c-0.2,0.8-3.6,30.3-7.5,65.7c-7.9,71-7.8,67.3-4,71.6c1,1.2,3,2.6,4.3,3.2c2.3,1.1,6.2,1.1,80.4,1.1c74.2,0,78.1-0.1,80.4-1.1c1.3-0.6,3.3-2,4.3-3.2c3.7-4.3,4-0.6-4-71.5c-3.9-35.4-7.3-65-7.5-65.8c-0.2-1.3-0.4-1.3-3.4,1.2c-12.2,10.3-27.8,16.3-50.5,19.5c-6.9,1-31.5,0.9-38.6,0c-22.7-3.1-38.3-9.2-50.5-19.5C55.2,103.1,55.1,103.1,54.8,104.4z M185.5,152.3c1.3,0.8,2.1,4.2,9.9,39.7c4.6,21.4,8.5,39.1,8.5,39.6c0.1,2.3-8.4,6.1-9.4,4.4c-0.2-0.4-3.4-17.5-7.2-38.1c-6.5-35.6-6.9-37.5-8.2-38.4c-1.4-0.8-6.4-0.9-51.1-0.9c-44.8,0-49.7,0.1-51.1,0.9c-1.4,0.9-1.8,2.7-8.2,38.3c-3.7,20.5-6.9,37.7-7.1,38.1c-0.6,1.6-6.4-0.3-8.7-2.8c-1.1-1.2-1-1.7,7.4-39.9c6-27.6,8.7-39,9.5-39.9c0.6-0.6,2-1.3,3-1.5c1.1-0.3,26.6-0.4,56.6-0.4C178.2,151.4,184.3,151.5,185.5,152.3z"/></g></g></g>
</svg>